shantell--light--organic.ufo
<glyph name="asterisk" format="2">
	<unicode hex="002A"/>
	<advance width="480"/>
	<outline>
		<contour>
			<point x="247" y="623.1996419917"/>
			<point x="290" y="542.1996419917"/>
			<point x="290" y="428.1996419917" type="curve" smooth="yes"/>
			<point x="290" y="356.1996419917"/>
			<point x="275" y="253.1996419917"/>
			<point x="293" y="165.1996419917" type="curve" smooth="yes"/>
			<point x="299" y="135.1996419917"/>
			<point x="279" y="123.1996419917"/>
			<point x="261" y="123.1996419917" type="curve" smooth="yes"/>
			<point x="241" y="123.1996419917"/>
			<point x="229" y="134.1996419917"/>
			<point x="225" y="155.1996419917" type="curve" smooth="yes"/>
			<point x="208" y="242.1996419917"/>
			<point x="220" y="353.1996419917"/>
			<point x="220" y="426.1996419917" type="curve" smooth="yes"/>
			<point x="220" y="543.1996419917"/>
			<point x="180" y="559.1996419917"/>
			<point x="180" y="596.1996419917" type="curve" smooth="yes"/>
			<point x="180" y="612.1996419917"/>
			<point x="189" y="623.1996419917"/>
			<point x="207" y="623.1996419917" type="curve" smooth="yes"/>
		</contour>
		<contour>
			<point x="425" y="471.1996419917" type="curve" smooth="yes"/>
			<point x="386" y="409.1996419917"/>
			<point x="199" y="323.1996419917"/>
			<point x="124" y="233.1996419917" type="curve" smooth="yes"/>
			<point x="117" y="225.1996419917"/>
			<point x="107" y="220.1996419917"/>
			<point x="97" y="220.1996419917" type="curve" smooth="yes"/>
			<point x="78" y="220.1996419917"/>
			<point x="62" y="238.1996419917"/>
			<point x="62" y="255.1996419917" type="curve" smooth="yes"/>
			<point x="62" y="263.1996419917"/>
			<point x="65" y="271.1996419917"/>
			<point x="70" y="277.1996419917" type="curve" smooth="yes"/>
			<point x="143" y="365.1996419917"/>
			<point x="322" y="438.1996419917"/>
			<point x="373" y="520.1996419917" type="curve" smooth="yes"/>
			<point x="381" y="532.1996419917"/>
			<point x="388" y="540.1996419917"/>
			<point x="403" y="540.1996419917" type="curve" smooth="yes"/>
			<point x="423" y="540.1996419917"/>
			<point x="438" y="523.1996419917"/>
			<point x="438" y="506.1996419917" type="curve" smooth="yes"/>
			<point x="438" y="499.1996419917"/>
			<point x="436" y="490.1996419917"/>
		</contour>
		<contour>
			<point x="99" y="507.1996419917" type="curve" smooth="yes"/>
			<point x="177" y="463.1996419917"/>
			<point x="310" y="399.1996419917"/>
			<point x="426" y="310.1996419917" type="curve" smooth="yes"/>
			<point x="435" y="303.1996419917"/>
			<point x="440" y="292.1996419917"/>
			<point x="440" y="282.1996419917" type="curve" smooth="yes"/>
			<point x="440" y="261.1996419917"/>
			<point x="421" y="247.1996419917"/>
			<point x="406" y="247.1996419917" type="curve" smooth="yes"/>
			<point x="397" y="247.1996419917"/>
			<point x="390" y="250.1996419917"/>
			<point x="369" y="266.1996419917" type="curve" smooth="yes"/>
			<point x="270" y="341.1996419917"/>
			<point x="137" y="403.1996419917"/>
			<point x="58" y="450.1996419917" type="curve" smooth="yes"/>
			<point x="37" y="462.1996419917"/>
			<point x="32" y="477.1996419917"/>
			<point x="32" y="492.1996419917" type="curve" smooth="yes"/>
			<point x="32" y="507.1996419917"/>
			<point x="42" y="520.1996419917"/>
			<point x="59" y="520.1996419917" type="curve" smooth="yes"/>
			<point x="74" y="520.1996419917"/>
			<point x="80" y="518.1996419917"/>
		</contour>
	</outline>
</glyph>
<glyph name="three" format="2">
	<unicode hex="0033"/>
	<advance width="700"/>
	<image fileName="zero.png" xScale="2.3662938837" yScale="2.3662938837" xOffset="-2104.8248343698" yOffset="-212.644631698" color="0,0,0,0.16492"/>
	<outline>
		<contour>
			<point x="106" y="585.2860646678"/>
			<point x="235.1460674157" y="659.2860646678"/>
			<point x="372" y="659.2860646678" type="curve" smooth="yes"/>
			<point x="490" y="659.2860646678"/>
			<point x="546" y="600.168417609"/>
			<point x="546" y="509.2860646678" type="curve" smooth="yes"/>
			<point x="546" y="431.6357914438"/>
			<point x="504.6152992252" y="338.391922599"/>
			<point x="318" y="306.2860646678" type="curve"/>
			<point x="319" y="323.2860646678" type="line"/>
			<point x="518.0013123058" y="325.2860778568"/>
			<point x="608" y="264.8050520096"/>
			<point x="608" y="155.2860646678" type="curve" smooth="yes"/>
			<point x="608" y="26.1556298852"/>
			<point x="493" y="-64.7139353322"/>
			<point x="317" y="-64.7139353322" type="curve" smooth="yes"/>
			<point x="183" y="-64.7139353322"/>
			<point x="112" y="-8.7139353322"/>
			<point x="112" y="29.2860646678" type="curve" smooth="yes"/>
			<point x="112" y="48.630892254"/>
			<point x="123" y="62.2860646678"/>
			<point x="139" y="62.2860646678" type="curve" smooth="yes"/>
			<point x="173" y="62.2860646678"/>
			<point x="174" y="2.2860646678"/>
			<point x="304" y="2.2860646678" type="curve" smooth="yes"/>
			<point x="431" y="2.2860646678"/>
			<point x="541" y="63.2983346065"/>
			<point x="541" y="155.2860646678" type="curve" smooth="yes"/>
			<point x="541" y="244.0003503821"/>
			<point x="439.0007335851" y="269.2860592738"/>
			<point x="303" y="270.2860646678" type="curve" smooth="yes"/>
			<point x="270" y="270.2860646678"/>
			<point x="251" y="293.2860646678"/>
			<point x="251" y="314.2860646678" type="curve" smooth="yes"/>
			<point x="251" y="329.2860646678"/>
			<point x="260" y="343.2860646678"/>
			<point x="281" y="348.2860646678" type="curve" smooth="yes"/>
			<point x="383.9409730788" y="374.5259205506"/>
			<point x="479" y="417.9385469373"/>
			<point x="479" y="509.2860646678" type="curve" smooth="yes"/>
			<point x="479" y="582.1432075249"/>
			<point x="423" y="594.2860646678"/>
			<point x="372" y="594.2860646678" type="curve" smooth="yes"/>
			<point x="199" y="594.2860646678"/>
			<point x="176" y="520.2860646678"/>
			<point x="140" y="520.2860646678" type="curve" smooth="yes"/>
			<point x="116" y="520.2860646678"/>
			<point x="106" y="531.2860646678"/>
			<point x="106" y="547.2860646678" type="curve" smooth="yes"/>
		</contour>
	</outline>
</glyph>
<glyph name="six" format="2">
	<unicode hex="0036"/>
	<advance width="700"/>
	<image fileName="zero.png" xScale="2.3662938837" yScale="2.3662938837" xOffset="-5902.8248343698" yOffset="-192.644631698" color="0,0,0,0.16492"/>
	<outline>
		<contour>
			<point x="429" y="770.9083699854" type="curve" smooth="yes"/>
			<point x="254.8729589748" y="643.0810046085"/>
			<point x="152" y="511.2265518036"/>
			<point x="152" y="376.9083699854" type="curve" smooth="yes"/>
			<point x="152" y="238.9083699854"/>
			<point x="235.691588785" y="192.9083699854"/>
			<point x="351" y="192.9083699854" type="curve" smooth="yes"/>
			<point x="450.6243093923" y="192.9083699854"/>
			<point x="547" y="230.5667550786"/>
			<point x="547" y="333.9083699854" type="curve" smooth="yes"/>
			<point x="547" y="390.4033194803"/>
			<point x="505.5159235669" y="452.9083699854"/>
			<point x="380" y="452.9083699854" type="curve" smooth="yes"/>
			<point x="233.9545454545" y="452.9083699854"/>
			<point x="212" y="418.9083699854"/>
			<point x="170" y="418.9083699854" type="curve" smooth="yes"/>
			<point x="153" y="418.9083699854"/>
			<point x="148" y="426.9083699854"/>
			<point x="148" y="444.9083699854" type="curve" smooth="yes"/>
			<point x="148" y="478.9083699854"/>
			<point x="233.3821138211" y="517.9083699854"/>
			<point x="384" y="517.9083699854" type="curve" smooth="yes"/>
			<point x="538.6968325792" y="517.9083699854"/>
			<point x="615" y="432.1083699854"/>
			<point x="615" y="322.9083699854" type="curve" smooth="yes"/>
			<point x="615" y="225.8618583575"/>
			<point x="525.9397590361" y="127.9083699854"/>
			<point x="351" y="127.9083699854" type="curve" smooth="yes"/>
			<point x="163.5693950178" y="127.9083699854"/>
			<point x="85" y="219.9083699854"/>
			<point x="85" y="376.9083699854" type="curve" smooth="yes"/>
			<point x="85" y="523.5735180492"/>
			<point x="192.8589384156" y="679.0839380553"/>
			<point x="385" y="817.9083699854" type="curve" smooth="yes"/>
			<point x="418" y="840.9083699854"/>
			<point x="428" y="848.9083699854"/>
			<point x="446" y="848.9083699854" type="curve" smooth="yes"/>
			<point x="459" y="848.9083699854"/>
			<point x="468" y="838.9083699854"/>
			<point x="468" y="823.9083699854" type="curve" smooth="yes"/>
			<point x="468" y="802.9083699854"/>
			<point x="460" y="792.9083699854"/>
		</contour>
	</outline>
</glyph>
<glyph name="eight" format="2">
	<unicode hex="0038"/>
	<advance width="700"/>
	<image fileName="zero.png" xScale="2.3662938837" yScale="2.3662938837" xOffset="-7182.8248343698" yOffset="-192.644631698" color="0,0,0,0.16492"/>
	<outline>
		<contour>
			<point x="446" y="527.3831173041" type="curve" smooth="yes"/>
			<point x="252.7300157411" y="531.8517874604"/>
			<point x="160" y="498.3831173041"/>
			<point x="160" y="426.3831173041" type="curve" smooth="yes"/>
			<point x="160" y="385.6698305908"/>
			<point x="181.3605250435" y="354.6162592153"/>
			<point x="374" y="284.3831173041" type="curve" smooth="yes"/>
			<point x="580.2824942527" y="209.6430831546"/>
			<point x="593" y="143.7227399456"/>
			<point x="593" y="71.3831173041" type="curve" smooth="yes"/>
			<point x="593" y="-31.6168826959"/>
			<point x="505" y="-130.6168826959"/>
			<point x="276" y="-130.6168826959" type="curve" smooth="yes"/>
			<point x="161" y="-130.6168826959"/>
			<point x="120" y="-67.6168826959"/>
			<point x="121" y="6.3831173041" type="curve" smooth="yes"/>
			<point x="122" y="74.3831173041"/>
			<point x="136" y="136.3831173041"/>
			<point x="334" y="270.3831173041" type="curve" smooth="yes"/>
			<point x="434" y="337.3831173041"/>
			<point x="487" y="393.3831173041"/>
			<point x="513" y="483.3831173041" type="curve" smooth="yes"/>
			<point x="522" y="512.3831173041"/>
			<point x="528.7777777778" y="524.3831173041"/>
			<point x="546" y="524.3831173041" type="curve" smooth="yes"/>
			<point x="562.8596491228" y="524.3831173041"/>
			<point x="577" y="509.3831173041"/>
			<point x="577" y="490.3831173041" type="curve" smooth="yes"/>
			<point x="577" y="416.3831173041"/>
			<point x="518.4832924048" y="312.0635867626"/>
			<point x="381" y="221.3831173041" type="curve" smooth="yes"/>
			<point x="228" y="122.3831173041"/>
			<point x="185" y="63.3831173041"/>
			<point x="185" y="5.3831173041" type="curve" smooth="yes"/>
			<point x="185" y="-23.6168826959"/>
			<point x="193" y="-54.6168826959"/>
			<point x="211" y="-81.6168826959" type="curve"/>
			<point x="172" y="-34.6168826959" type="line"/>
			<point x="202" y="-55.6168826959"/>
			<point x="241" y="-65.6168826959"/>
			<point x="276" y="-65.6168826959" type="curve" smooth="yes"/>
			<point x="414" y="-65.6168826959"/>
			<point x="526" y="-19.6168826959"/>
			<point x="526" y="73.3831173041" type="curve" smooth="yes"/>
			<point x="526" y="133.9764506374"/>
			<point x="491.8927426564" y="171.4213699231"/>
			<point x="349" y="222.3831173041" type="curve" smooth="yes"/>
			<point x="123.876552534" y="302.4270097365"/>
			<point x="91.9951228642" y="355.027086391"/>
			<point x="93" y="428.3831173041" type="curve" smooth="yes"/>
			<point x="95" y="531.3831173041"/>
			<point x="190" y="592.3831173041"/>
			<point x="405" y="592.3831173041" type="curve" smooth="yes"/>
			<point x="455" y="592.3831173041"/>
			<point x="477" y="571.3831173041"/>
			<point x="477" y="550.3831173041" type="curve" smooth="yes"/>
			<point x="477" y="537.3831173041"/>
			<point x="462" y="526.3831173041"/>
		</contour>
	</outline>
</glyph>
<glyph name="nine" format="2">
	<unicode hex="0039"/>
	<advance width="700"/>
	<image fileName="zero.png" xScale="2.3662938837" yScale="2.3662938837" xOffset="-7800.8248343698" yOffset="-227.644631698" color="0,0,0,0.16492"/>
	<outline>
		<contour>
			<point x="496" y="752.4079828274" type="curve" smooth="yes"/>
			<point x="510" y="752.4079828274"/>
			<point x="517" y="772.4079828274"/>
			<point x="517" y="792.4079828274" type="curve" smooth="yes"/>
			<point x="517" y="842.4079828274"/>
			<point x="462" y="873.4079828274"/>
			<point x="369" y="873.4079828274" type="curve" smooth="yes"/>
			<point x="198" y="873.4079828274"/>
			<point x="92" y="745.4079828274"/>
			<point x="92" y="621.4079828274" type="curve" smooth="yes"/>
			<point x="92" y="514.4079828274"/>
			<point x="150" y="441.4079828274"/>
			<point x="277" y="441.4079828274" type="curve" smooth="yes"/>
			<point x="389" y="441.4079828274"/>
			<point x="501" y="508.4079828274"/>
			<point x="537" y="619.4079828274" type="curve"/>
			<point x="513" y="622.4079828274" type="line"/>
			<point x="513" y="442.4079828274"/>
			<point x="503" y="301.4079828274"/>
			<point x="519" y="201.4079828274" type="curve" smooth="yes"/>
			<point x="523.9893124088" y="172.4699708564"/>
			<point x="540" y="154.4079828274"/>
			<point x="567" y="154.4079828274" type="curve" smooth="yes"/>
			<point x="582" y="154.4079828274"/>
			<point x="590" y="165.4079828274"/>
			<point x="590" y="184.4079828274" type="curve" smooth="yes"/>
			<point x="590" y="234.4079828274"/>
			<point x="578" y="283.4677437836"/>
			<point x="578" y="443.4079828274" type="curve" smooth="yes"/>
			<point x="578" y="483.4079828274"/>
			<point x="575" y="582.4079828274"/>
			<point x="576" y="688.4079828274" type="curve"/>
			<point x="594.9426409456" y="794.0879796816"/>
			<point x="571" y="820.4079828274"/>
			<point x="532" y="820.4079828274" type="curve" smooth="yes"/>
			<point x="515" y="820.4079828274"/>
			<point x="504" y="802.4079828274"/>
			<point x="504" y="767.4079828274" type="curve" smooth="yes"/>
			<point x="504" y="583.4079828274"/>
			<point x="392" y="506.4079828274"/>
			<point x="277" y="506.4079828274" type="curve" smooth="yes"/>
			<point x="202" y="506.4079828274"/>
			<point x="159" y="545.4079828274"/>
			<point x="159" y="621.4079828274" type="curve" smooth="yes"/>
			<point x="159" y="728.4079828274"/>
			<point x="248" y="808.4079828274"/>
			<point x="369" y="808.4079828274" type="curve" smooth="yes"/>
			<point x="474" y="808.4079828274"/>
			<point x="460" y="752.4079828274"/>
		</contour>
	</outline>
</glyph>
<glyph name="semicolon" format="2">
	<unicode hex="003B"/>
	<advance width="320"/>
	<outline>
		<contour>
			<point x="166" y="305.0679266012" type="curve" smooth="yes"/>
			<point x="207" y="305.0679266012"/>
			<point x="223" y="331.0679266012"/>
			<point x="223" y="356.0679266012" type="curve" smooth="yes"/>
			<point x="223" y="391.0679266012"/>
			<point x="198" y="434.0679266012"/>
			<point x="156" y="434.0679266012" type="curve" smooth="yes"/>
			<point x="125" y="434.0679266012"/>
			<point x="98" y="410.0679266012"/>
			<point x="98" y="376.0679266012" type="curve" smooth="yes"/>
			<point x="98" y="340.0679266012"/>
			<point x="129" y="305.0679266012"/>
		</contour>
		<component base="comma" yOffset="-61.9320733988"/>
	</outline>
</glyph>
<glyph name="D" format="2">
	<unicode hex="0044"/>
	<advance width="642"/>
	<outline>
		<contour>
			<point x="204" y="-68.3759215876" type="curve" smooth="yes"/>
			<point x="371" y="-68.3759215876"/>
			<point x="589" y="123.6240784124"/>
			<point x="589" y="399.6240784124" type="curve" smooth="yes"/>
			<point x="589" y="558.6240784124"/>
			<point x="507" y="650.6240784124"/>
			<point x="362" y="650.6240784124" type="curve" smooth="yes"/>
			<point x="233.5268817204" y="650.6240784124"/>
			<point x="107.9119849245" y="605.1783105731"/>
			<point x="53" y="576.6240784124" type="curve" smooth="yes"/>
			<point x="40" y="569.6240784124"/>
			<point x="31" y="557.6240784124"/>
			<point x="31" y="545.6240784124" type="curve" smooth="yes"/>
			<point x="31" y="532.6240784124"/>
			<point x="41" y="522.6240784124"/>
			<point x="63" y="522.6240784124" type="curve" smooth="yes"/>
			<point x="132.3517786561" y="522.6240784124"/>
			<point x="194.9920948617" y="585.6240784124"/>
			<point x="346" y="585.6240784124" type="curve" smooth="yes"/>
			<point x="477" y="585.6240784124"/>
			<point x="523" y="516.6240784124"/>
			<point x="523" y="397.6240784124" type="curve" smooth="yes"/>
			<point x="523" y="165.6240784124"/>
			<point x="347" y="-0.3759215876"/>
			<point x="157" y="-11.3759215876" type="curve"/>
			<point x="179" y="-23.3759215876" type="line"/>
			<point x="169" y="18.6240784124"/>
			<point x="167" y="53.6240784124"/>
			<point x="167" y="88.6240784124" type="curve" smooth="yes"/>
			<point x="167" y="303.6240784124"/>
			<point x="191" y="427.6240784124"/>
			<point x="191" y="524.6240784124" type="curve" smooth="yes"/>
			<point x="191" y="550.6240784124"/>
			<point x="179" y="572.6240784124"/>
			<point x="165" y="572.6240784124" type="curve" smooth="yes"/>
			<point x="145" y="572.6240784124"/>
			<point x="136" y="558.6240784124"/>
			<point x="131" y="519.6240784124" type="curve" smooth="yes"/>
			<point x="113" y="374.6240784124"/>
			<point x="103" y="232.6240784124"/>
			<point x="103" y="35.6240784124" type="curve" smooth="yes"/>
			<point x="103" y="-15.3759215876"/>
			<point x="146" y="-68.3759215876"/>
		</contour>
	</outline>
</glyph>
<glyph name="G" format="2">
	<unicode hex="0047"/>
	<advance width="742"/>
	<outline>
		<contour>
			<point x="353" y="380.8860967732" type="curve" smooth="yes"/>
			<point x="401" y="380.8860967732"/>
			<point x="493" y="422.8860967732"/>
			<point x="672" y="422.8860967732" type="curve" smooth="yes"/>
			<point x="701" y="422.8860967732"/>
			<point x="714" y="437.8860967732"/>
			<point x="714" y="451.8860967732" type="curve" smooth="yes"/>
			<point x="714" y="472.8860967732"/>
			<point x="704" y="489.8860967732"/>
			<point x="654" y="489.8860967732" type="curve" smooth="yes"/>
			<point x="568" y="489.8860967732"/>
			<point x="476" y="474.8860967732"/>
			<point x="382" y="452.8860967732" type="curve" smooth="yes"/>
			<point x="332" y="440.8860967732"/>
			<point x="319" y="425.8860967732"/>
			<point x="319" y="409.8860967732" type="curve" smooth="yes"/>
			<point x="319" y="392.8860967732"/>
			<point x="329" y="380.8860967732"/>
		</contour>
		<contour>
			<point x="657" y="10.8860967732" type="curve" smooth="yes"/>
			<point x="672" y="10.8860967732"/>
			<point x="681" y="19.8860967732"/>
			<point x="681" y="34.8860967732" type="curve"/>
			<point x="681" y="49.8860967732"/>
			<point x="677" y="66.8860967732"/>
			<point x="661" y="103.8860967732" type="curve" smooth="yes"/>
			<point x="628" y="176.8860967732"/>
			<point x="605" y="278.8860967732"/>
			<point x="605" y="404.8860967732" type="curve" smooth="yes"/>
			<point x="605" y="436.8860967732"/>
			<point x="592" y="455.8860967732"/>
			<point x="571" y="455.8860967732" type="curve" smooth="yes"/>
			<point x="539" y="455.8860967732"/>
			<point x="523" y="443.8860967732"/>
			<point x="509" y="409.8860967732" type="curve" smooth="yes"/>
			<point x="444" y="251.8860967732"/>
			<point x="376" y="162.8860967732"/>
			<point x="274" y="162.8860967732" type="curve" smooth="yes"/>
			<point x="193" y="162.8860967732"/>
			<point x="133" y="223.8860967732"/>
			<point x="133" y="344.8860967732" type="curve" smooth="yes"/>
			<point x="133" y="538.8860967732"/>
			<point x="323" y="749.8860967732"/>
			<point x="489" y="749.8860967732" type="curve" smooth="yes"/>
			<point x="513" y="749.8860967732"/>
			<point x="520" y="740.8860967732"/>
			<point x="520" y="727.8860967732" type="curve" smooth="yes"/>
			<point x="520" y="698.8860967732"/>
			<point x="503" y="647.8860967732"/>
			<point x="535" y="647.8860967732" type="curve" smooth="yes"/>
			<point x="563" y="647.8860967732"/>
			<point x="589" y="683.8860967732"/>
			<point x="589" y="741.8860967732" type="curve" smooth="yes"/>
			<point x="589" y="781.8860967732"/>
			<point x="562" y="815.8860967732"/>
			<point x="495" y="815.8860967732" type="curve" smooth="yes"/>
			<point x="288" y="815.8860967732"/>
			<point x="65" y="588.8860967732"/>
			<point x="65" y="345.8860967732" type="curve" smooth="yes"/>
			<point x="65" y="173.8860967732"/>
			<point x="156" y="97.8860967732"/>
			<point x="277" y="97.8860967732" type="curve" smooth="yes"/>
			<point x="381" y="97.8860967732"/>
			<point x="482" y="157.8860967732"/>
			<point x="569" y="397.8860967732" type="curve"/>
			<point x="540" y="399.8860967732" type="line"/>
			<point x="544" y="211.8860967732"/>
			<point x="580" y="105.8860967732"/>
			<point x="600" y="64.8860967732" type="curve" smooth="yes"/>
			<point x="617" y="26.8860967732"/>
			<point x="632" y="10.8860967732"/>
		</contour>
	</outline>
</glyph>
<glyph name="K" format="2">
	<unicode hex="004B"/>
	<advance width="654"/>
	<image fileName="B_.png" xScale="2.611894476" yScale="2.611894476" xOffset="-1993.7903116164" yOffset="-300.367864743" color="0,0,0,0.25523"/>
	<outline>
		<contour>
			<point x="135" y="-69.3196081206" type="curve" smooth="yes"/>
			<point x="151" y="-69.3196081206"/>
			<point x="161" y="-58.3196081206"/>
			<point x="161" y="-39.3196081206" type="curve" smooth="yes"/>
			<point x="161" y="14.6803918794"/>
			<point x="149" y="10.6803918794"/>
			<point x="149" y="166.6803918794" type="curve" smooth="yes"/>
			<point x="149" y="273.6803918794"/>
			<point x="174" y="408.6803918794"/>
			<point x="174" y="493.6803918794" type="curve" smooth="yes"/>
			<point x="174" y="558.6803918794"/>
			<point x="168" y="651.6803918794"/>
			<point x="122" y="651.6803918794" type="curve" smooth="yes"/>
			<point x="107" y="651.6803918794"/>
			<point x="95" y="641.6803918794"/>
			<point x="95" y="617.6803918794" type="curve" smooth="yes"/>
			<point x="95" y="578.6803918794"/>
			<point x="107" y="559.6803918794"/>
			<point x="107" y="493.6803918794" type="curve" smooth="yes"/>
			<point x="107" y="425.6803918794"/>
			<point x="83" y="287.6803918794"/>
			<point x="83" y="128.6803918794" type="curve" smooth="yes"/>
			<point x="83" y="-17.3196081206"/>
			<point x="96" y="-69.3196081206"/>
		</contour>
		<contour>
			<point x="581" y="-69.3196081206" type="curve" smooth="yes"/>
			<point x="601" y="-69.3196081206"/>
			<point x="609" y="-60.3196081206"/>
			<point x="609" y="-44.3196081206" type="curve" smooth="yes"/>
			<point x="609" y="-22.3196081206"/>
			<point x="588" y="-7.3196081206"/>
			<point x="559" y="-2.3196081206" type="curve" smooth="yes"/>
			<point x="346" y="33.6803918794"/>
			<point x="209" y="155.6803918794"/>
			<point x="209" y="252.6803918794" type="curve" smooth="yes"/>
			<point x="209" y="317.6803918794"/>
			<point x="310" y="455.6803918794"/>
			<point x="502" y="563.6803918794" type="curve" smooth="yes"/>
			<point x="538" y="583.6803918794"/>
			<point x="560" y="598.6803918794"/>
			<point x="560" y="621.6803918794" type="curve" smooth="yes"/>
			<point x="560" y="638.6803918794"/>
			<point x="550" y="646.6803918794"/>
			<point x="532" y="646.6803918794" type="curve" smooth="yes"/>
			<point x="511" y="646.6803918794"/>
			<point x="489" y="636.6803918794"/>
			<point x="447" y="609.6803918794" type="curve" smooth="yes"/>
			<point x="297" y="521.6803918794"/>
			<point x="149" y="389.6803918794"/>
			<point x="149" y="249.6803918794" type="curve" smooth="yes"/>
			<point x="149" y="49.6803918794"/>
			<point x="460" y="-69.3196081206"/>
		</contour>
	</outline>
</glyph>
<glyph name="L" format="2">
	<unicode hex="004C"/>
	<advance width="556"/>
	<image fileName="B_.png" xScale="2.611894476" yScale="2.611894476" xOffset="-2674.7903116164" yOffset="-300.367864743" color="0,0,0,0.25523"/>
	<outline>
		<contour>
			<point x="286" y="175.3983533802" type="curve" smooth="yes"/>
			<point x="367.3605150215" y="175.3983533802"/>
			<point x="437.6412760438" y="190.5783466735"/>
			<point x="499" y="219.3983533802" type="curve" smooth="yes"/>
			<point x="516" y="227.3983533802"/>
			<point x="527" y="243.3983533802"/>
			<point x="527" y="259.3983533802" type="curve" smooth="yes"/>
			<point x="527" y="275.3983533802"/>
			<point x="517" y="285.3983533802"/>
			<point x="500" y="285.3983533802" type="curve" smooth="yes"/>
			<point x="469.8571428571" y="285.3983533802"/>
			<point x="432" y="240.3983533802"/>
			<point x="289" y="240.3983533802" type="curve" smooth="yes"/>
			<point x="185" y="240.3983533802"/>
			<point x="144" y="314.3983533802"/>
			<point x="144" y="428.3983533802" type="curve" smooth="yes"/>
			<point x="144" y="583.3983533802"/>
			<point x="194" y="693.3983533802"/>
			<point x="194" y="828.3983533802" type="curve" smooth="yes"/>
			<point x="194" y="875.3983533802"/>
			<point x="179.7391304348" y="894.3983533802"/>
			<point x="153" y="894.3983533802" type="curve" smooth="yes"/>
			<point x="128.2380952381" y="894.3983533802"/>
			<point x="127" y="877.3983533802"/>
			<point x="127" y="842.3983533802" type="curve" smooth="yes"/>
			<point x="127" y="707.3983533802"/>
			<point x="76" y="593.2774465792"/>
			<point x="76" y="435.3983533802" type="curve" smooth="yes"/>
			<point x="76" y="267.3983533802"/>
			<point x="150.0526315789" y="175.3983533802"/>
		</contour>
	</outline>
</glyph>
<glyph name="M" format="2">
	<unicode hex="004D"/>
	<advance width="916"/>
	<image fileName="B_.png" xScale="2.611894476" yScale="2.611894476" xOffset="-3165.7903116164" yOffset="-300.367864743" color="0,0,0,0.25523"/>
	<outline>
		<contour>
			<point x="183" y="548.6676217307" type="curve" smooth="yes"/>
			<point x="191" y="426.6676217307"/>
			<point x="157" y="431.6676217307"/>
			<point x="174" y="549.6676217307" type="curve" smooth="yes"/>
			<point x="197" y="709.6676217307"/>
			<point x="232" y="780.6676217307"/>
			<point x="282" y="780.6676217307" type="curve" smooth="yes"/>
			<point x="352" y="780.6676217307"/>
			<point x="375" y="609.6676217307"/>
			<point x="413" y="311.6676217307" type="curve" smooth="yes"/>
			<point x="417" y="281.6676217307"/>
			<point x="431" y="203.6676217307"/>
			<point x="463" y="140.6676217307" type="curve" smooth="yes"/>
			<point x="480" y="107.6676217307"/>
			<point x="412" y="75.6676217307"/>
			<point x="440" y="131.6676217307" type="curve" smooth="yes"/>
			<point x="521" y="280.6676217307"/>
			<point x="548" y="525.6676217307"/>
			<point x="595" y="641.6676217307" type="curve" smooth="yes"/>
			<point x="634" y="737.6676217307"/>
			<point x="664" y="774.6676217307"/>
			<point x="693" y="774.6676217307" type="curve" smooth="yes"/>
			<point x="726" y="774.6676217307"/>
			<point x="776" y="729.6676217307"/>
			<point x="785" y="517.6676217307" type="curve" smooth="yes"/>
			<point x="791" y="384.6676217307"/>
			<point x="818" y="238.6676217307"/>
			<point x="861" y="118.6676217307" type="curve" smooth="yes"/>
			<point x="875" y="75.6676217307"/>
			<point x="861" y="62.6676217307"/>
			<point x="838" y="62.6676217307" type="curve" smooth="yes"/>
			<point x="817" y="62.6676217307"/>
			<point x="805" y="79.6676217307"/>
			<point x="783" y="136.6676217307" type="curve" smooth="yes"/>
			<point x="752" y="218.6676217307"/>
			<point x="725" y="380.6676217307"/>
			<point x="720" y="502.6676217307" type="curve" smooth="yes"/>
			<point x="716" y="592.6676217307"/>
			<point x="703" y="637.6676217307"/>
			<point x="678" y="682.6676217307" type="curve" smooth="yes"/>
			<point x="653" y="727.6676217307"/>
			<point x="761" y="759.6676217307"/>
			<point x="689" y="673.6676217307" type="curve" smooth="yes"/>
			<point x="609" y="575.6676217307"/>
			<point x="612" y="318.6676217307"/>
			<point x="501" y="96.6676217307" type="curve" smooth="yes"/>
			<point x="490" y="74.6676217307"/>
			<point x="482" y="62.6676217307"/>
			<point x="458" y="62.6676217307" type="curve" smooth="yes"/>
			<point x="438" y="62.6676217307"/>
			<point x="425" y="73.6676217307"/>
			<point x="408" y="100.6676217307" type="curve" smooth="yes"/>
			<point x="365" y="172.6676217307"/>
			<point x="342" y="306.6676217307"/>
			<point x="324" y="444.6676217307" type="curve" smooth="yes"/>
			<point x="313" y="541.6676217307"/>
			<point x="294" y="630.6676217307"/>
			<point x="269" y="702.6676217307" type="curve" smooth="yes"/>
			<point x="242" y="783.6676217307"/>
			<point x="320" y="799.6676217307"/>
			<point x="277" y="704.6676217307" type="curve" smooth="yes"/>
			<point x="225" y="579.6676217307"/>
			<point x="192" y="362.6676217307"/>
			<point x="192" y="103.6676217307" type="curve" smooth="yes"/>
			<point x="192" y="73.6676217307"/>
			<point x="180" y="59.6676217307"/>
			<point x="164" y="59.6676217307" type="curve" smooth="yes"/>
			<point x="142" y="59.6676217307"/>
			<point x="113" y="78.6676217307"/>
			<point x="113" y="209.6676217307" type="curve" smooth="yes"/>
			<point x="113" y="315.6676217307"/>
			<point x="123" y="384.6676217307"/>
			<point x="123" y="457.6676217307" type="curve" smooth="yes"/>
			<point x="123" y="624.6676217307"/>
			<point x="89" y="657.6676217307"/>
			<point x="89" y="693.6676217307" type="curve" smooth="yes"/>
			<point x="89" y="710.6676217307"/>
			<point x="98" y="719.6676217307"/>
			<point x="115" y="719.6676217307" type="curve" smooth="yes"/>
			<point x="152" y="719.6676217307"/>
			<point x="177" y="646.6676217307"/>
		</contour>
	</outline>
</glyph>
<glyph name="R" format="2">
	<unicode hex="0052"/>
	<advance width="700"/>
	<outline>
		<contour>
			<point x="97" y="481.7274467342" type="curve" smooth="yes"/>
			<point x="67" y="481.7274467342"/>
			<point x="63" y="463.7274467342"/>
			<point x="80" y="420.7274467342" type="curve" smooth="yes"/>
			<point x="111" y="343.7274467342"/>
			<point x="116" y="300.7274467342"/>
			<point x="121" y="245.7274467342" type="curve"/>
			<point x="86" y="122.7274467342"/>
			<point x="70" y="31.7274467342"/>
			<point x="70" y="-43.2725532658" type="curve" smooth="yes"/>
			<point x="70" y="-119.2725532658"/>
			<point x="80" y="-162.2725532658"/>
			<point x="114" y="-162.2725532658" type="curve" smooth="yes"/>
			<point x="133" y="-162.2725532658"/>
			<point x="137" y="-154.2725532658"/>
			<point x="137" y="-81.2725532658" type="curve" smooth="yes"/>
			<point x="137" y="193.7274467342"/>
			<point x="252" y="495.7274467342"/>
			<point x="455" y="495.7274467342" type="curve" smooth="yes"/>
			<point x="528" y="495.7274467342"/>
			<point x="556" y="450.7274467342"/>
			<point x="556" y="397.7274467342" type="curve" smooth="yes"/>
			<point x="556" y="315.7274467342"/>
			<point x="479" y="222.7274467342"/>
			<point x="232" y="131.7274467342" type="curve" smooth="yes"/>
			<point x="189" y="115.7274467342"/>
			<point x="182" y="89.7274467342"/>
			<point x="205" y="58.7274467342" type="curve" smooth="yes"/>
			<point x="284" y="-43.2725532658"/>
			<point x="526" y="-161.2725532658"/>
			<point x="600" y="-161.2725532658" type="curve" smooth="yes"/>
			<point x="632" y="-161.2725532658"/>
			<point x="644" y="-152.2725532658"/>
			<point x="644" y="-130.2725532658" type="curve" smooth="yes"/>
			<point x="644" y="-115.2725532658"/>
			<point x="634" y="-104.2725532658"/>
			<point x="590" y="-89.2725532658" type="curve" smooth="yes"/>
			<point x="448" y="-42.2725532658"/>
			<point x="334" y="25.7274467342"/>
			<point x="274" y="82.7274467342" type="curve"/>
			<point x="564" y="187.7274467342"/>
			<point x="626" y="300.7274467342"/>
			<point x="626" y="398.7274467342" type="curve" smooth="yes"/>
			<point x="626" y="489.7274467342"/>
			<point x="577" y="560.7274467342"/>
			<point x="464" y="560.7274467342" type="curve" smooth="yes"/>
			<point x="338" y="560.7274467342"/>
			<point x="226" y="487.7274467342"/>
			<point x="149" y="303.7274467342" type="curve"/>
			<point x="173" y="312.7274467342" type="line"/>
			<point x="164" y="435.7274467342"/>
			<point x="131" y="481.7274467342"/>
		</contour>
	</outline>
</glyph>
<glyph name="T" format="2">
	<unicode hex="0054"/>
	<advance width="647"/>
	<outline>
		<contour>
			<point x="295" y="535.0046149291" type="curve" smooth="yes"/>
			<point x="271" y="253.0046149291"/>
			<point x="283" y="89.0046149291"/>
			<point x="292" y="8.0046149291" type="curve" smooth="yes"/>
			<point x="301" y="-71.9953850709"/>
			<point x="322" y="-93.9953850709"/>
			<point x="345" y="-93.9953850709" type="curve" smooth="yes"/>
			<point x="360" y="-93.9953850709"/>
			<point x="371" y="-86.9953850709"/>
			<point x="371" y="-67.9953850709" type="curve" smooth="yes"/>
			<point x="371" y="-24.9953850709"/>
			<point x="333" y="86.0046149291"/>
			<point x="357" y="463.0046149291" type="curve" smooth="yes"/>
			<point x="362" y="551.0046149291"/>
			<point x="355" y="579.0046149291"/>
			<point x="324" y="579.0046149291" type="curve" smooth="yes"/>
			<point x="307" y="579.0046149291"/>
			<point x="297" y="561.0046149291"/>
		</contour>
		<contour>
			<point x="134" y="558.0046149291" type="curve" smooth="yes"/>
			<point x="262" y="554.0046149291"/>
			<point x="337" y="553.0046149291"/>
			<point x="489" y="553.0046149291" type="curve" smooth="yes"/>
			<point x="553" y="553.0046149291"/>
			<point x="618" y="569.0046149291"/>
			<point x="618" y="604.0046149291" type="curve" smooth="yes"/>
			<point x="618" y="619.0046149291"/>
			<point x="608" y="630.0046149291"/>
			<point x="586" y="630.0046149291" type="curve" smooth="yes"/>
			<point x="555" y="630.0046149291"/>
			<point x="545" y="619.0046149291"/>
			<point x="452" y="619.0046149291" type="curve" smooth="yes"/>
			<point x="317" y="619.0046149291"/>
			<point x="245" y="625.0046149291"/>
			<point x="80" y="625.0046149291" type="curve" smooth="yes"/>
			<point x="52" y="625.0046149291"/>
			<point x="41" y="616.0046149291"/>
			<point x="41" y="604.0046149291" type="curve" smooth="yes"/>
			<point x="41" y="582.4137058382"/>
			<point x="56" y="560.0046149291"/>
		</contour>
	</outline>
</glyph>
<glyph name="Y" format="2">
	<unicode hex="0059"/>
	<advance width="601"/>
	<image fileName="W_.png" xScale="2.149419181" yScale="2.149419181" xOffset="-7799.9384359798" yOffset="-239.078106569" color="0,0,0,0.26332"/>
	<outline>
		<contour>
			<point x="542" y="489.9303876945" type="curve" smooth="yes"/>
			<point x="408" y="345.9303876945"/>
			<point x="308" y="142.9303876945"/>
			<point x="268" y="-76.0696123055" type="curve" smooth="yes"/>
			<point x="259" y="-126.0696123055"/>
			<point x="247" y="-138.0696123055"/>
			<point x="222" y="-138.0696123055" type="curve" smooth="yes"/>
			<point x="196" y="-138.0696123055"/>
			<point x="184" y="-116.0696123055"/>
			<point x="198" y="-55.0696123055" type="curve" smooth="yes"/>
			<point x="238" y="139.9303876945"/>
			<point x="344" y="384.9303876945"/>
			<point x="501" y="555.9303876945" type="curve" smooth="yes"/>
			<point x="527" y="583.9303876945"/>
			<point x="542" y="588.9303876945"/>
			<point x="557" y="588.9303876945" type="curve" smooth="yes"/>
			<point x="570" y="588.9303876945"/>
			<point x="583" y="577.9303876945"/>
			<point x="583" y="558.9303876945" type="curve" smooth="yes"/>
			<point x="583" y="534.9303876945"/>
			<point x="579" y="527.9303876945"/>
		</contour>
		<contour>
			<point x="96" y="554.9303876945" type="curve" smooth="yes"/>
			<point x="172" y="415.9303876945"/>
			<point x="220" y="387.9303876945"/>
			<point x="300" y="237.9303876945" type="curve" smooth="yes"/>
			<point x="309" y="219.9303876945"/>
			<point x="312" y="184.9303876945"/>
			<point x="280" y="184.9303876945" type="curve" smooth="yes"/>
			<point x="262" y="184.9303876945"/>
			<point x="250" y="196.9303876945"/>
			<point x="240" y="213.9303876945" type="curve" smooth="yes"/>
			<point x="152.3162334957" y="359.3571223846"/>
			<point x="108" y="400.9303876945"/>
			<point x="51" y="495.9303876945" type="curve" smooth="yes"/>
			<point x="29" y="534.9303876945"/>
			<point x="25" y="543.9303876945"/>
			<point x="25" y="559.9303876945" type="curve" smooth="yes"/>
			<point x="25" y="576.9303876945"/>
			<point x="36" y="587.9303876945"/>
			<point x="53" y="587.9303876945" type="curve" smooth="yes"/>
			<point x="72" y="587.9303876945"/>
			<point x="83" y="577.9303876945"/>
		</contour>
	</outline>
</glyph>
<glyph name="Z" format="2">
	<unicode hex="005A"/>
	<advance width="636"/>
	<image fileName="W_.png" xScale="2.149419181" yScale="2.149419181" xOffset="-8482.561352475" yOffset="-239.078106569" color="0,0,0,0.26332"/>
	<outline>
		<contour>
			<point x="131" y="540.8787480557" type="curve" smooth="yes"/>
			<point x="197" y="555.8787480557"/>
			<point x="258" y="565.8787480557"/>
			<point x="320" y="565.8787480557" type="curve" smooth="yes"/>
			<point x="502" y="565.8787480557"/>
			<point x="544" y="501.8787480557"/>
			<point x="544" y="427.8787480557" type="curve" smooth="yes"/>
			<point x="544" y="355.8787480557"/>
			<point x="516" y="304.8787480557"/>
			<point x="314" y="171.8787480557" type="curve" smooth="yes"/>
			<point x="115" y="40.8787480557"/>
			<point x="119" y="-6.1212519443"/>
			<point x="133" y="-100.1212519443" type="curve" smooth="yes"/>
			<point x="136" y="-123.1212519443"/>
			<point x="65" y="-57.1212519443"/>
			<point x="109" y="-75.1212519443" type="curve" smooth="yes"/>
			<point x="133" y="-85.1212519443"/>
			<point x="162" y="-86.1212519443"/>
			<point x="182" y="-86.1212519443" type="curve" smooth="yes"/>
			<point x="260" y="-86.1212519443"/>
			<point x="339" y="-78.1212519443"/>
			<point x="429" y="-78.1212519443" type="curve" smooth="yes"/>
			<point x="556" y="-78.1212519443"/>
			<point x="608" y="-90.1212519443"/>
			<point x="608" y="-125.1212519443" type="curve" smooth="yes"/>
			<point x="608" y="-142.1212519443"/>
			<point x="593" y="-151.1212519443"/>
			<point x="561" y="-151.1212519443" type="curve" smooth="yes"/>
			<point x="515" y="-151.1212519443"/>
			<point x="494" y="-144.1212519443"/>
			<point x="413" y="-144.1212519443" type="curve" smooth="yes"/>
			<point x="330" y="-144.1212519443"/>
			<point x="252" y="-151.1212519443"/>
			<point x="185" y="-151.1212519443" type="curve" smooth="yes"/>
			<point x="93" y="-151.1212519443"/>
			<point x="61" y="-110.1212519443"/>
			<point x="61" y="-37.1212519443" type="curve" smooth="yes"/>
			<point x="61" y="19.8787480557"/>
			<point x="88" y="110.8787480557"/>
			<point x="289" y="236.8787480557" type="curve" smooth="yes"/>
			<point x="474" y="350.8787480557"/>
			<point x="489" y="403.8787480557"/>
			<point x="475" y="479.8787480557" type="curve" smooth="yes"/>
			<point x="464" y="535.8787480557"/>
			<point x="525" y="445.8787480557"/>
			<point x="480" y="472.8787480557" type="curve" smooth="yes"/>
			<point x="448" y="491.8787480557"/>
			<point x="407" y="498.8787480557"/>
			<point x="321" y="498.8787480557" type="curve" smooth="yes"/>
			<point x="206" y="498.8787480557"/>
			<point x="159" y="474.8787480557"/>
			<point x="119" y="474.8787480557" type="curve" smooth="yes"/>
			<point x="104" y="474.8787480557"/>
			<point x="85" y="482.8787480557"/>
			<point x="85" y="502.8787480557" type="curve" smooth="yes"/>
			<point x="85" y="519.8787480557"/>
			<point x="99" y="532.8787480557"/>
		</contour>
	</outline>
</glyph>
<glyph name="a" format="2">
	<unicode hex="0061"/>
	<advance width="644"/>
	<outline>
		<contour>
			<point x="409" y="555.575074567" type="curve" smooth="yes"/>
			<point x="413" y="578.575074567"/>
			<point x="422" y="592.575074567"/>
			<point x="442" y="592.575074567" type="curve" smooth="yes"/>
			<point x="468" y="592.575074567"/>
			<point x="487" y="566.575074567"/>
			<point x="490" y="526.575074567" type="curve" smooth="yes"/>
			<point x="502" y="390.575074567"/>
			<point x="516" y="306.575074567"/>
			<point x="589" y="209.575074567" type="curve" smooth="yes"/>
			<point x="607" y="186.575074567"/>
			<point x="594" y="151.575074567"/>
			<point x="570" y="151.575074567" type="curve" smooth="yes"/>
			<point x="552" y="151.575074567"/>
			<point x="544" y="159.575074567"/>
			<point x="533" y="172.575074567" type="curve" smooth="yes"/>
			<point x="480" y="243.575074567"/>
			<point x="439" y="321.575074567"/>
			<point x="433" y="530.575074567" type="curve"/>
			<point x="462" y="529.575074567" type="line"/>
			<point x="433.0067477096" y="250.6399921877"/>
			<point x="314.8700361011" y="148.575074567"/>
			<point x="215" y="148.575074567" type="curve" smooth="yes"/>
			<point x="128.4545454545" y="148.575074567"/>
			<point x="75" y="216.575074567"/>
			<point x="75" y="321.575074567" type="curve" smooth="yes"/>
			<point x="75" y="478.9670054027"/>
			<point x="197.7947019868" y="652.575074567"/>
			<point x="367" y="652.575074567" type="curve" smooth="yes"/>
			<point x="391" y="652.575074567"/>
			<point x="409" y="640.575074567"/>
			<point x="409" y="618.575074567" type="curve" smooth="yes"/>
			<point x="409" y="603.575074567"/>
			<point x="400" y="591.575074567"/>
			<point x="379" y="589.575074567" type="curve" smooth="yes"/>
			<point x="239.0361617904" y="568.4846331929"/>
			<point x="146" y="447.0821168205"/>
			<point x="146" y="321.575074567" type="curve" smooth="yes"/>
			<point x="146" y="278.575074567"/>
			<point x="150" y="250.575074567"/>
			<point x="177" y="194.575074567" type="curve"/>
			<point x="131" y="251.575074567" type="line"/>
			<point x="159.8433435801" y="219.6413727462"/>
			<point x="173" y="212.575074567"/>
			<point x="211" y="212.575074567" type="curve" smooth="yes"/>
			<point x="302" y="212.575074567"/>
			<point x="372.9084653072" y="333.0106106283"/>
		</contour>
	</outline>
</glyph>
<glyph name="c" format="2">
	<unicode hex="0063"/>
	<advance width="482"/>
	<image fileName="b.png" xScale="2.580311745" yScale="2.580311745" xOffset="-593.3109110762" yOffset="-580.570142633" color="0,0,0,0.24109"/>
	<outline>
		<contour>
			<point x="444" y="-81.586952571" type="curve" smooth="yes"/>
			<point x="444" y="-59.586952571"/>
			<point x="437" y="-51.586952571"/>
			<point x="423" y="-51.586952571" type="curve" smooth="yes"/>
			<point x="393" y="-51.586952571"/>
			<point x="399" y="-119.586952571"/>
			<point x="266" y="-119.586952571" type="curve" smooth="yes"/>
			<point x="188" y="-119.586952571"/>
			<point x="124" y="-60.0920030761"/>
			<point x="124" y="35.413047429" type="curve" smooth="yes"/>
			<point x="124" y="146.6857747017"/>
			<point x="211" y="251.413047429"/>
			<point x="331" y="251.413047429" type="curve" smooth="yes"/>
			<point x="360" y="251.413047429"/>
			<point x="361" y="238.413047429"/>
			<point x="382" y="238.413047429" type="curve" smooth="yes"/>
			<point x="399.1219512195" y="238.413047429"/>
			<point x="408" y="251.5709421658"/>
			<point x="408" y="268.413047429" type="curve" smooth="yes"/>
			<point x="408" y="310.913047429"/>
			<point x="374.5" y="319.413047429"/>
			<point x="341" y="319.413047429" type="curve" smooth="yes"/>
			<point x="187" y="319.413047429"/>
			<point x="56" y="198.413047429"/>
			<point x="56" y="44.413047429" type="curve" smooth="yes"/>
			<point x="56" y="-91.586952571"/>
			<point x="146" y="-184.586952571"/>
			<point x="266" y="-184.586952571" type="curve" smooth="yes"/>
			<point x="369" y="-184.586952571"/>
			<point x="444" y="-142.586952571"/>
		</contour>
	</outline>
</glyph>
<glyph name="e" format="2">
	<unicode hex="0065"/>
	<advance width="537"/>
	<outline>
		<contour>
			<point x="192" y="75.8311695517" type="curve" smooth="yes"/>
			<point x="338" y="75.8311695517"/>
			<point x="446" y="140.8311695517"/>
			<point x="446" y="248.8311695517" type="curve" smooth="yes"/>
			<point x="446" y="343.8311695517"/>
			<point x="387.3121387283" y="394.8311695517"/>
			<point x="303" y="394.8311695517" type="curve" smooth="yes"/>
			<point x="144.8709677419" y="394.8311695517"/>
			<point x="45" y="242.8311695517"/>
			<point x="45" y="109.8311695517" type="curve" smooth="yes"/>
			<point x="45" y="-18.1688304483"/>
			<point x="107" y="-110.1688304483"/>
			<point x="249" y="-110.1688304483" type="curve" smooth="yes"/>
			<point x="365.4788135593" y="-110.1688304483"/>
			<point x="480" y="-34.1688304483"/>
			<point x="480" y="13.8311695517" type="curve" smooth="yes"/>
			<point x="480" y="33.8311695517"/>
			<point x="476" y="42.8311695517"/>
			<point x="461" y="42.8311695517" type="curve" smooth="yes"/>
			<point x="427" y="42.8311695517"/>
			<point x="387" y="-45.1688304483"/>
			<point x="246" y="-45.1688304483" type="curve" smooth="yes"/>
			<point x="148.4558823529" y="-45.1688304483"/>
			<point x="112" y="20.8311695517"/>
			<point x="112" y="100.8311695517" type="curve" smooth="yes"/>
			<point x="112" y="219.8311695517"/>
			<point x="191.1578947368" y="328.8311695517"/>
			<point x="300" y="328.8311695517" type="curve" smooth="yes"/>
			<point x="358.4430379747" y="328.8311695517"/>
			<point x="381" y="302.8311695517"/>
			<point x="381" y="252.8311695517" type="curve" smooth="yes"/>
			<point x="381" y="181.8311695517"/>
			<point x="314.3089005236" y="140.8311695517"/>
			<point x="188" y="140.8311695517" type="curve" smooth="yes"/>
			<point x="156" y="140.8311695517"/>
			<point x="137" y="148.8311695517"/>
			<point x="122" y="148.8311695517" type="curve" smooth="yes"/>
			<point x="103" y="148.8311695517"/>
			<point x="97" y="141.8311695517"/>
			<point x="97" y="126.8311695517" type="curve" smooth="yes"/>
			<point x="97" y="101.8311695517"/>
			<point x="121" y="75.8311695517"/>
		</contour>
	</outline>
</glyph>
<glyph name="g" format="2">
	<unicode hex="0067"/>
	<advance width="600"/>
	<outline>
		<contour>
			<point x="430" y="286.6742659084" type="curve" smooth="yes"/>
			<point x="461" y="286.6742659084"/>
			<point x="476.0057221545" y="251.6017852852"/>
			<point x="479" y="213.6742659084" type="curve" smooth="yes"/>
			<point x="493" y="44.6742659084"/>
			<point x="545" y="-34.3257340916"/>
			<point x="545" y="-235.3257340916" type="curve" smooth="yes"/>
			<point x="545" y="-360.3257340916"/>
			<point x="483.375" y="-436.3257340916"/>
			<point x="375" y="-436.3257340916" type="curve" smooth="yes"/>
			<point x="187.1428571429" y="-436.3257340916"/>
			<point x="112" y="-325.4457340916"/>
			<point x="112" y="-247.3257340916" type="curve" smooth="yes"/>
			<point x="112" y="-219.3257340916"/>
			<point x="130" y="-195.3257340916"/>
			<point x="152" y="-195.3257340916" type="curve" smooth="yes"/>
			<point x="170" y="-195.3257340916"/>
			<point x="178" y="-206.3257340916"/>
			<point x="178" y="-227.3257340916" type="curve" smooth="yes"/>
			<point x="178" y="-314.5285312944"/>
			<point x="261.8877005348" y="-372.3257340916"/>
			<point x="367" y="-372.3257340916" type="curve" smooth="yes"/>
			<point x="452.4601769912" y="-372.3257340916"/>
			<point x="478" y="-319.3257340916"/>
			<point x="478" y="-224.3257340916" type="curve" smooth="yes"/>
			<point x="478" y="-64.3257340916"/>
			<point x="426" y="31.6742659084"/>
			<point x="414" y="151.6742659084" type="curve"/>
			<point x="446" y="140.6742659084" type="line"/>
			<point x="425.6330620534" y="-13.0961155879"/>
			<point x="345.2941176471" y="-85.3257340916"/>
			<point x="232" y="-85.3257340916" type="curve" smooth="yes"/>
			<point x="123.1497326203" y="-85.3257340916"/>
			<point x="55" y="-25.4494454318"/>
			<point x="55" y="90.6742659084" type="curve" smooth="yes"/>
			<point x="55" y="210.1479501189"/>
			<point x="161" y="317.6742659084"/>
			<point x="278" y="317.6742659084" type="curve" smooth="yes"/>
			<point x="376" y="317.6742659084"/>
			<point x="410" y="267.9090485171"/>
			<point x="410" y="220.6742659084" type="curve" smooth="yes"/>
			<point x="410" y="207.6742659084"/>
			<point x="399" y="186.6742659084"/>
			<point x="386" y="186.6742659084" type="curve" smooth="yes"/>
			<point x="345.8620689655" y="186.6742659084"/>
			<point x="362" y="251.6742659084"/>
			<point x="289" y="251.6742659084" type="curve" smooth="yes"/>
			<point x="196" y="251.6742659084"/>
			<point x="122" y="172.0852248125"/>
			<point x="122" y="85.6742659084" type="curve" smooth="yes"/>
			<point x="122" y="15.9968465536"/>
			<point x="156" y="-22.3257340916"/>
			<point x="231" y="-22.3257340916" type="curve" smooth="yes"/>
			<point x="323" y="-22.3257340916"/>
			<point x="397" y="48.6742659084"/>
			<point x="397" y="247.6742659084" type="curve" smooth="yes"/>
			<point x="397" y="274.6742659084"/>
			<point x="405" y="286.6742659084"/>
		</contour>
	</outline>
</glyph>
<glyph name="k" format="2">
	<unicode hex="006B"/>
	<advance width="558"/>
	<image fileName="b.png" xScale="2.580311745" yScale="2.580311745" xOffset="-1523.246456254" yOffset="-580.570142633" color="0,0,0,0.24109"/>
	<outline>
		<contour>
			<point x="471" y="131.8643238651" type="curve" smooth="yes"/>
			<point x="491" y="131.8643238651"/>
			<point x="501" y="141.8643238651"/>
			<point x="501" y="157.8643238651" type="curve" smooth="yes"/>
			<point x="501" y="174.8643238651"/>
			<point x="491" y="188.8643238651"/>
			<point x="438" y="206.8643238651" type="curve" smooth="yes"/>
			<point x="305.2082863863" y="249.476590174"/>
			<point x="239" y="333.8643238651"/>
			<point x="239" y="367.8643238651" type="curve" smooth="yes"/>
			<point x="239" y="414.4314880442"/>
			<point x="346.2465843186" y="522.3805860576"/>
			<point x="444" y="562.8643238651" type="curve" smooth="yes"/>
			<point x="471" y="573.8643238651"/>
			<point x="485" y="585.8643238651"/>
			<point x="485" y="606.8643238651" type="curve" smooth="yes"/>
			<point x="485" y="624.8643238651"/>
			<point x="472.7222222222" y="633.8643238651"/>
			<point x="451" y="633.8643238651" type="curve" smooth="yes"/>
			<point x="374" y="633.8643238651"/>
			<point x="172" y="468.8643238651"/>
			<point x="172" y="367.8643238651" type="curve" smooth="yes"/>
			<point x="172" y="256.8643238651"/>
			<point x="373" y="131.8643238651"/>
		</contour>
		<contour>
			<point x="182" y="947.8643238651" type="curve" smooth="yes"/>
			<point x="163" y="948.8643238651"/>
			<point x="152" y="937.8643238651"/>
			<point x="149" y="919.8643238651" type="curve" smooth="yes"/>
			<point x="142" y="874.8643238651"/>
			<point x="148" y="867.8643238651"/>
			<point x="127" y="729.8643238651" type="curve" smooth="yes"/>
			<point x="98" y="542.8643238651"/>
			<point x="75" y="347.7208812421"/>
			<point x="75" y="255.8643238651" type="curve" smooth="yes"/>
			<point x="75" y="153.8643238651"/>
			<point x="99.5" y="128.8643238651"/>
			<point x="124" y="128.8643238651" type="curve" smooth="yes"/>
			<point x="140.1111111111" y="128.8643238651"/>
			<point x="149" y="139.8643238651"/>
			<point x="149" y="163.8643238651" type="curve" smooth="yes"/>
			<point x="149" y="196.8643238651"/>
			<point x="144" y="225.4643238651"/>
			<point x="144" y="267.8643238651" type="curve" smooth="yes"/>
			<point x="144" y="407.8549561836"/>
			<point x="152" y="455.8643238651"/>
			<point x="195" y="732.8643238651" type="curve" smooth="yes"/>
			<point x="221" y="903.8643238651"/>
			<point x="212" y="947.8643238651"/>
		</contour>
	</outline>
</glyph>
<glyph name="l" format="2">
	<unicode hex="006C"/>
	<advance width="318"/>
	<image fileName="b.png" xScale="2.580311745" yScale="2.580311745" xOffset="-2454.3109110762" yOffset="-580.570142633" color="0,0,0,0.24109"/>
	<outline>
		<contour>
			<point x="157" y="551.9786313223" type="curve" smooth="yes"/>
			<point x="157" y="478.9786313223"/>
			<point x="129" y="394.9786313223"/>
			<point x="129" y="147.9786313223" type="curve" smooth="yes"/>
			<point x="129" y="-73.0213686777"/>
			<point x="157" y="-143.0213686777"/>
			<point x="193" y="-143.0213686777" type="curve" smooth="yes"/>
			<point x="240.7922077922" y="-143.0213686777"/>
			<point x="248" y="-115.0213686777"/>
			<point x="273" y="-115.0213686777" type="curve" smooth="yes"/>
			<point x="291" y="-115.0213686777"/>
			<point x="297" y="-127.0213686777"/>
			<point x="297" y="-144.0213686777" type="curve" smooth="yes"/>
			<point x="297" y="-179.0213686777"/>
			<point x="244" y="-210.0213686777"/>
			<point x="195" y="-210.0213686777" type="curve" smooth="yes"/>
			<point x="113" y="-210.0213686777"/>
			<point x="61" y="-166.0213686777"/>
			<point x="61" y="167.9786313223" type="curve" smooth="yes"/>
			<point x="61" y="341.5146313223"/>
			<point x="73" y="436.9786313223"/>
			<point x="89" y="541.9786313223" type="curve" smooth="yes"/>
			<point x="98" y="593.9786313223"/>
			<point x="108.2727272727" y="610.9786313223"/>
			<point x="126" y="610.9786313223" type="curve" smooth="yes"/>
			<point x="144.6" y="610.9786313223"/>
			<point x="157" y="594.9786313223"/>
		</contour>
	</outline>
</glyph>
<glyph name="n" format="2">
	<unicode hex="006E"/>
	<advance width="612"/>
	<outline>
		<contour>
			<point x="514" y="123.8279432153" type="curve" smooth="yes"/>
			<point x="539" y="123.8279432153"/>
			<point x="549" y="141.8279432153"/>
			<point x="549" y="156.8279432153" type="curve" smooth="yes"/>
			<point x="549" y="172.8279432153"/>
			<point x="545" y="179.8279432153"/>
			<point x="535" y="187.8279432153" type="curve" smooth="yes"/>
			<point x="490" y="225.8279432153"/>
			<point x="494" y="316.4386302382"/>
			<point x="494" y="475.8279432153" type="curve" smooth="yes"/>
			<point x="494" y="565.8279432153"/>
			<point x="456" y="629.8279432153"/>
			<point x="399" y="629.8279432153" type="curve" smooth="yes"/>
			<point x="302" y="629.8279432153"/>
			<point x="198" y="481.8279432153"/>
			<point x="131" y="206.8279432153" type="curve"/>
			<point x="143" y="214.8279432153" type="line"/>
			<point x="133.0061024569" y="393.7187092366"/>
			<point x="171" y="472.8279432153"/>
			<point x="171" y="562.8279432153" type="curve" smooth="yes"/>
			<point x="171" y="611.8279432153"/>
			<point x="148.1428571429" y="628.8279432153"/>
			<point x="131" y="628.8279432153" type="curve" smooth="yes"/>
			<point x="113.6428571429" y="628.8279432153"/>
			<point x="104" y="616.0779432153"/>
			<point x="104" y="598.8279432153" type="curve" smooth="yes"/>
			<point x="104" y="473.8476800574"/>
			<point x="75" y="421.6997380871"/>
			<point x="75" y="284.8279432153" type="curve" smooth="yes"/>
			<point x="75" y="191.8279432153"/>
			<point x="98.8" y="124.8279432153"/>
			<point x="145" y="124.8279432153" type="curve" smooth="yes"/>
			<point x="170.2777777778" y="124.8279432153"/>
			<point x="184.154669954" y="145.5061114751"/>
			<point x="197" y="201.8279432153" type="curve" smooth="yes"/>
			<point x="244" y="396.8279432153"/>
			<point x="345" y="562.8279432153"/>
			<point x="393" y="562.8279432153" type="curve" smooth="yes"/>
			<point x="416" y="562.8279432153"/>
			<point x="427" y="551.8279432153"/>
			<point x="443" y="529.8279432153" type="curve"/>
			<point x="441" y="575.8279432153"/>
			<point x="418" y="595.8279432153"/>
			<point x="374" y="591.8279432153" type="curve"/>
			<point x="414" y="560.8279432153"/>
			<point x="426" y="548.8279432153"/>
			<point x="426" y="398.8279432153" type="curve" smooth="yes"/>
			<point x="426" y="197.8279432153"/>
			<point x="450" y="123.8279432153"/>
		</contour>
	</outline>
</glyph>
<glyph name="p" format="2">
	<unicode hex="0070"/>
	<advance width="550"/>
	<outline>
		<contour>
			<point x="131" y="526.4879592728" type="curve" smooth="yes"/>
			<point x="131" y="365.4879592728"/>
			<point x="187" y="243.4879592728"/>
			<point x="187" y="96.4879592728" type="curve" smooth="yes"/>
			<point x="187" y="-43.5120407272"/>
			<point x="157" y="-118.5120407272"/>
			<point x="113" y="-118.5120407272" type="curve" smooth="yes"/>
			<point x="93" y="-118.5120407272"/>
			<point x="84" y="-111.5120407272"/>
			<point x="84" y="-90.5120407272" type="curve" smooth="yes"/>
			<point x="84" y="-57.5120407272"/>
			<point x="119" y="-38.5120407272"/>
			<point x="119" y="92.4879592728" type="curve" smooth="yes"/>
			<point x="119" y="235.4879592728"/>
			<point x="61" y="391.4879592728"/>
			<point x="61" y="548.4879592728" type="curve" smooth="yes"/>
			<point x="61" y="583.4879592728"/>
			<point x="72" y="598.4879592728"/>
			<point x="94" y="598.4879592728" type="curve" smooth="yes"/>
			<point x="117.7179487179" y="598.4879592728"/>
			<point x="131" y="565.4879592728"/>
		</contour>
		<contour>
			<point x="76" y="615.4879592728"/>
			<point x="107" y="636.4879592728"/>
			<point x="189" y="636.4879592728" type="curve" smooth="yes"/>
			<point x="362" y="636.4879592728"/>
			<point x="492" y="518.4879592728"/>
			<point x="492" y="333.4879592728" type="curve" smooth="yes"/>
			<point x="492" y="204.4879592728"/>
			<point x="408" y="132.4879592728"/>
			<point x="294" y="132.4879592728" type="curve" smooth="yes"/>
			<point x="204" y="132.4879592728"/>
			<point x="136" y="171.4879592728"/>
			<point x="136" y="209.4879592728" type="curve" smooth="yes"/>
			<point x="136" y="223.4879592728"/>
			<point x="140" y="234.4879592728"/>
			<point x="156" y="234.4879592728" type="curve" smooth="yes"/>
			<point x="180" y="234.4879592728"/>
			<point x="183" y="198.4879592728"/>
			<point x="289" y="198.4879592728" type="curve" smooth="yes"/>
			<point x="369" y="198.4879592728"/>
			<point x="424" y="236.4879592728"/>
			<point x="424" y="339.4879592728" type="curve" smooth="yes"/>
			<point x="424" y="477.4879592728"/>
			<point x="327" y="571.4879592728"/>
			<point x="196" y="571.4879592728" type="curve" smooth="yes"/>
			<point x="161" y="571.4879592728"/>
			<point x="124" y="560.4879592728"/>
			<point x="104" y="560.4879592728" type="curve" smooth="yes"/>
			<point x="85" y="560.4879592728"/>
			<point x="76" y="574.4879592728"/>
			<point x="76" y="589.4879592728" type="curve" smooth="yes"/>
		</contour>
	</outline>
</glyph>
<glyph name="u" format="2">
	<unicode hex="0075"/>
	<advance width="579"/>
	<outline>
		<contour>
			<point x="303" y="-83.3949324491" type="curve" smooth="yes"/>
			<point x="410.2432432432" y="-83.3949324491"/>
			<point x="495" y="35.9511165972"/>
			<point x="495" y="281.6050675509" type="curve" smooth="yes"/>
			<point x="495" y="385.6050675509"/>
			<point x="475" y="415.6050675509"/>
			<point x="444" y="415.6050675509" type="curve" smooth="yes"/>
			<point x="426" y="415.6050675509"/>
			<point x="421" y="404.6050675509"/>
			<point x="421" y="387.6050675509" type="curve" smooth="yes"/>
			<point x="421" y="352.6050675509"/>
			<point x="428" y="336.6050675509"/>
			<point x="428" y="280.6050675509" type="curve" smooth="yes"/>
			<point x="428" y="74.9804828333"/>
			<point x="377" y="-18.3949324491"/>
			<point x="291" y="-18.3949324491" type="curve" smooth="yes"/>
			<point x="216" y="-18.3949324491"/>
			<point x="132" y="110.3323402782"/>
			<point x="132" y="217.6050675509" type="curve" smooth="yes"/>
			<point x="132" y="324.6050675509"/>
			<point x="156" y="334.6050675509"/>
			<point x="156" y="377.6050675509" type="curve" smooth="yes"/>
			<point x="156" y="398.6050675509"/>
			<point x="146" y="412.6050675509"/>
			<point x="127" y="412.6050675509" type="curve" smooth="yes"/>
			<point x="113" y="412.6050675509"/>
			<point x="101" y="403.6050675509"/>
			<point x="97" y="391.6050675509" type="curve" smooth="yes"/>
			<point x="75" y="334.6050675509"/>
			<point x="65" y="279.6050675509"/>
			<point x="65" y="217.6050675509" type="curve" smooth="yes"/>
			<point x="65" y="91.1262401893"/>
			<point x="158.2462686567" y="-83.3949324491"/>
		</contour>
	</outline>
</glyph>
<glyph name="v" format="2">
	<unicode hex="0076"/>
	<advance width="506"/>
	<outline>
		<contour>
			<point x="209" y="176.6306893069" type="curve" smooth="yes"/>
			<point x="226" y="150.6306893069"/>
			<point x="238" y="139.6306893069"/>
			<point x="255" y="139.6306893069" type="curve" smooth="yes"/>
			<point x="274" y="139.6306893069"/>
			<point x="283" y="148.6306893069"/>
			<point x="294" y="174.6306893069" type="curve" smooth="yes"/>
			<point x="367" y="345.6306893069"/>
			<point x="367" y="459.6306893069"/>
			<point x="463" y="580.6306893069" type="curve" smooth="yes"/>
			<point x="470" y="589.6306893069"/>
			<point x="475" y="599.6306893069"/>
			<point x="475" y="611.6306893069" type="curve" smooth="yes"/>
			<point x="475" y="626.6306893069"/>
			<point x="460" y="643.6306893069"/>
			<point x="443" y="643.6306893069" type="curve" smooth="yes"/>
			<point x="426" y="643.6306893069"/>
			<point x="419" y="635.6306893069"/>
			<point x="406" y="620.6306893069" type="curve" smooth="yes"/>
			<point x="322" y="514.6306893069"/>
			<point x="307" y="371.6306893069"/>
			<point x="238" y="213.6306893069" type="curve"/>
			<point x="268" y="216.6306893069" type="line"/>
			<point x="220" y="294.6306893069"/>
			<point x="189" y="420.6306893069"/>
			<point x="154" y="515.6306893069" type="curve" smooth="yes"/>
			<point x="130" y="578.6306893069"/>
			<point x="111" y="641.6306893069"/>
			<point x="60" y="641.6306893069" type="curve" smooth="yes"/>
			<point x="41" y="641.6306893069"/>
			<point x="31" y="631.6306893069"/>
			<point x="31" y="621.6306893069" type="curve" smooth="yes"/>
			<point x="31" y="587.6306893069"/>
			<point x="58" y="591.6306893069"/>
			<point x="113" y="435.6306893069" type="curve" smooth="yes"/>
			<point x="147" y="340.6306893069"/>
			<point x="178" y="225.6306893069"/>
		</contour>
	</outline>
</glyph>
<glyph name="copyright" format="2">
	<unicode hex="00A9"/>
	<advance width="929"/>
	<outline>
		<contour>
			<point x="321" y="767.0049552872" type="curve" smooth="yes"/>
			<point x="202.7239495554" y="694.9304870475"/>
			<point x="152" y="574.0049552872"/>
			<point x="152" y="449.0049552872" type="curve" smooth="yes"/>
			<point x="152" y="311.0049552872"/>
			<point x="245.3962264151" y="194.0049552872"/>
			<point x="427" y="194.0049552872" type="curve" smooth="yes"/>
			<point x="661.6411609499" y="194.0049552872"/>
			<point x="796" y="329.0049552872"/>
			<point x="796" y="564.0049552872" type="curve" smooth="yes"/>
			<point x="796" y="738.0049552872"/>
			<point x="714" y="847.0049552872"/>
			<point x="512" y="846.0049552872" type="curve" smooth="yes"/>
			<point x="351" y="845.0049552872"/>
			<point x="286" y="784.0049552872"/>
			<point x="211" y="724.0049552872" type="curve" smooth="yes"/>
			<point x="199" y="715.0049552872"/>
			<point x="188" y="709.0049552872"/>
			<point x="177" y="709.0049552872" type="curve" smooth="yes"/>
			<point x="161" y="709.0049552872"/>
			<point x="156" y="717.0049552872"/>
			<point x="156" y="735.0049552872" type="curve" smooth="yes"/>
			<point x="156" y="792.0049552872"/>
			<point x="293" y="909.0049552872"/>
			<point x="503" y="909.0049552872" type="curve" smooth="yes"/>
			<point x="752" y="909.0049552872"/>
			<point x="864" y="776.0049552872"/>
			<point x="864" y="573.0049552872" type="curve" smooth="yes"/>
			<point x="864" y="277.0049552872"/>
			<point x="669.5852534562" y="131.0049552872"/>
			<point x="440" y="131.0049552872" type="curve" smooth="yes"/>
			<point x="236.2608695652" y="131.0049552872"/>
			<point x="85" y="226.0049552872"/>
			<point x="85" y="448.0049552872" type="curve" smooth="yes"/>
			<point x="85" y="696.0049552872"/>
			<point x="279" y="846.0049552872"/>
			<point x="354" y="846.0049552872" type="curve" smooth="yes"/>
			<point x="369" y="846.0049552872"/>
			<point x="376" y="842.0049552872"/>
			<point x="376" y="827.0049552872" type="curve" smooth="yes"/>
			<point x="376" y="807.0049552872"/>
			<point x="362" y="792.0049552872"/>
		</contour>
		<contour>
			<point x="466" y="304.0049552872" type="curve" smooth="yes"/>
			<point x="580.2790697674" y="304.0049552872"/>
			<point x="634" y="369.8301980056"/>
			<point x="634" y="417.0049552872" type="curve" smooth="yes"/>
			<point x="634" y="432.0049552872"/>
			<point x="627" y="443.0049552872"/>
			<point x="617" y="443.0049552872" type="curve" smooth="yes"/>
			<point x="594.5974025974" y="443.0049552872"/>
			<point x="576" y="368.0049552872"/>
			<point x="467" y="368.0049552872" type="curve" smooth="yes"/>
			<point x="391" y="368.0049552872"/>
			<point x="343" y="407.0049552872"/>
			<point x="343" y="478.0049552872" type="curve" smooth="yes"/>
			<point x="343" y="574.0049552872"/>
			<point x="414" y="669.0049552872"/>
			<point x="513" y="669.0049552872" type="curve" smooth="yes"/>
			<point x="569" y="669.0049552872"/>
			<point x="578" y="644.0049552872"/>
			<point x="578" y="614.0049552872" type="curve" smooth="yes"/>
			<point x="578" y="586.0049552872"/>
			<point x="582" y="576.0049552872"/>
			<point x="596" y="576.0049552872" type="curve" smooth="yes"/>
			<point x="623" y="576.0049552872"/>
			<point x="635" y="602.0049552872"/>
			<point x="635" y="631.0049552872" type="curve" smooth="yes"/>
			<point x="635" y="690.0049552872"/>
			<point x="602" y="732.0049552872"/>
			<point x="523" y="732.0049552872" type="curve" smooth="yes"/>
			<point x="384" y="732.0049552872"/>
			<point x="276" y="610.0049552872"/>
			<point x="276" y="481.0049552872" type="curve" smooth="yes"/>
			<point x="276" y="380.0049552872"/>
			<point x="335" y="304.0049552872"/>
		</contour>
	</outline>
</glyph>
<glyph name="endash" format="2">
	<unicode hex="2013"/>
	<advance width="700"/>
	<outline>
		<contour>
			<point x="118" y="409.5985071377" type="curve" smooth="yes"/>
			<point x="185.4493927126" y="409.5985071377"/>
			<point x="293.3684210526" y="419.5985071377"/>
			<point x="594" y="419.5985071377" type="curve" smooth="yes"/>
			<point x="626" y="419.5985071377"/>
			<point x="645" y="430.5985071377"/>
			<point x="645" y="448.5985071377" type="curve" smooth="yes"/>
			<point x="645" y="461.5985071377"/>
			<point x="623" y="482.5985071377"/>
			<point x="561" y="482.5985071377" type="curve" smooth="yes"/>
			<point x="402.3551020408" y="482.5985071377"/>
			<point x="252" y="478.5985071377"/>
			<point x="87" y="468.5985071377" type="curve" smooth="yes"/>
			<point x="62" y="466.5985071377"/>
			<point x="55" y="450.5985071377"/>
			<point x="55" y="439.5985071377" type="curve" smooth="yes"/>
			<point x="55" y="424.5985071377"/>
			<point x="77" y="409.5985071377"/>
		</contour>
	</outline>
</glyph>
<glyph name="quotedblleft" format="2">
	<unicode hex="201C"/>
	<advance width="411"/>
	<image fileName="quoteleft.png" xScale="2.7154088417" yScale="2.7154088417" xOffset="-110.4273808669" yOffset="-445.4316255776" color="0,0,0,0.31832"/>
	<outline>
		<contour>
			<point x="203" y="626.7130896455" type="curve" smooth="yes"/>
			<point x="185" y="626.7130896455"/>
			<point x="172" y="620.7130896455"/>
			<point x="143" y="583.7130896455" type="curve" smooth="yes"/>
			<point x="87" y="511.7130896455"/>
			<point x="50" y="418.7130896455"/>
			<point x="50" y="344.7130896455" type="curve" smooth="yes"/>
			<point x="50" y="306.7130896455"/>
			<point x="67" y="272.7130896455"/>
			<point x="92" y="272.7130896455" type="curve" smooth="yes"/>
			<point x="111" y="272.7130896455"/>
			<point x="121" y="286.7130896455"/>
			<point x="133" y="341.7130896455" type="curve" smooth="yes"/>
			<point x="145" y="397.7130896455"/>
			<point x="166" y="463.7130896455"/>
			<point x="222" y="530.7130896455" type="curve" smooth="yes"/>
			<point x="243" y="555.7130896455"/>
			<point x="246" y="563.7130896455"/>
			<point x="246" y="572.7130896455" type="curve" smooth="yes"/>
			<point x="247" y="596.7130896455"/>
			<point x="231" y="626.7130896455"/>
		</contour>
		<contour>
			<point x="341" y="536.7130896455" type="curve" smooth="yes"/>
			<point x="323" y="536.7130896455"/>
			<point x="310" y="530.7130896455"/>
			<point x="283" y="493.7130896455" type="curve" smooth="yes"/>
			<point x="243" y="438.7130896455"/>
			<point x="220" y="358.3992821141"/>
			<point x="220" y="297.7130896455" type="curve" smooth="yes"/>
			<point x="220" y="259.7130896455"/>
			<point x="237" y="225.7130896455"/>
			<point x="262" y="225.7130896455" type="curve" smooth="yes"/>
			<point x="281" y="225.7130896455"/>
			<point x="291" y="239.7130896455"/>
			<point x="303" y="294.7130896455" type="curve" smooth="yes"/>
			<point x="312.2184359167" y="337.7324572569"/>
			<point x="323" y="387.7130896455"/>
			<point x="363" y="438.7130896455" type="curve" smooth="yes"/>
			<point x="384" y="467.7130896455"/>
			<point x="386" y="477.6416610741"/>
			<point x="386" y="487.7130896455" type="curve" smooth="yes"/>
			<point x="386.907650909" y="509.4967114613"/>
			<point x="370.3023255814" y="536.7130896455"/>
		</contour>
	</outline>
</glyph>
<glyph name="ellipsis" format="2">
	<unicode hex="2026"/>
	<advance width="841"/>
	<outline>
		<contour>
			<point x="176" y="63.0000089023" type="curve" smooth="yes"/>
			<point x="210" y="63.0000089023"/>
			<point x="223" y="89.0000089023"/>
			<point x="223" y="114.0000089023" type="curve" smooth="yes"/>
			<point x="223" y="149.0000089023"/>
			<point x="194" y="192.0000089023"/>
			<point x="146" y="192.0000089023" type="curve" smooth="yes"/>
			<point x="120" y="192.0000089023"/>
			<point x="98" y="172.0000089023"/>
			<point x="98" y="144.0000089023" type="curve" smooth="yes"/>
			<point x="98" y="103.0000089023"/>
			<point x="134" y="63.0000089023"/>
		</contour>
		<contour>
			<point x="436" y="63.0000089023" type="curve" smooth="yes"/>
			<point x="470" y="63.0000089023"/>
			<point x="483" y="89.0000089023"/>
			<point x="483" y="114.0000089023" type="curve" smooth="yes"/>
			<point x="483" y="149.0000089023"/>
			<point x="454" y="192.0000089023"/>
			<point x="406" y="192.0000089023" type="curve" smooth="yes"/>
			<point x="380" y="192.0000089023"/>
			<point x="358" y="172.0000089023"/>
			<point x="358" y="144.0000089023" type="curve" smooth="yes"/>
			<point x="358" y="103.0000089023"/>
			<point x="394" y="63.0000089023"/>
		</contour>
		<contour>
			<point x="696" y="63.0000089023" type="curve" smooth="yes"/>
			<point x="730" y="63.0000089023"/>
			<point x="743" y="89.0000089023"/>
			<point x="743" y="114.0000089023" type="curve" smooth="yes"/>
			<point x="743" y="149.0000089023"/>
			<point x="714" y="192.0000089023"/>
			<point x="666" y="192.0000089023" type="curve" smooth="yes"/>
			<point x="640" y="192.0000089023"/>
			<point x="618" y="172.0000089023"/>
			<point x="618" y="144.0000089023" type="curve" smooth="yes"/>
			<point x="618" y="103.0000089023"/>
			<point x="654" y="63.0000089023"/>
		</contour>
	</outline>
</glyph>
